<svg width="305" height="68" viewBox="0 0 305 68" fill="none" xmlns="http://www.w3.org/2000/svg">
<path d="M35.9375 1.59375C35.7812 4.25 35.6406 6.96875 35.5156 9.75C35.4219 12.5312 35.3438 15.2969 35.2812 18.0469C35.2188 20.7969 35.1719 23.5 35.1406 26.1562C35.1094 28.8125 35.0938 31.3438 35.0938 33.75C35.0938 36.1562 35.1094 38.6875 35.1406 41.3438C35.1719 44 35.2031 46.7188 35.2344 49.5C35.2969 52.25 35.375 55.0312 35.4688 57.8438C35.5625 60.625 35.6875 63.3438 35.8438 66H27.125C27.2812 63.3438 27.4062 60.625 27.5 57.8438C27.625 55.0312 27.7188 52.25 27.7812 49.5C27.8438 46.7188 27.8906 44 27.9219 41.3438C27.9531 38.6875 27.9688 36.1562 27.9688 33.75H8.65625C8.65625 36.1562 8.67188 38.6875 8.70312 41.3438C8.73438 44 8.78125 46.7188 8.84375 49.5C8.90625 52.25 8.98438 55.0312 9.07812 57.8438C9.17188 60.625 9.29688 63.3438 9.45312 66H0.6875C0.875 63.3438 1.01562 60.625 1.10938 57.8438C1.23438 55.0312 1.32812 52.25 1.39062 49.5C1.45312 46.7188 1.5 44 1.53125 41.3438C1.5625 38.6875 1.57812 36.1562 1.57812 33.75C1.57812 31.3438 1.5625 28.8125 1.53125 26.1562C1.5 23.5 1.45312 20.7969 1.39062 18.0469C1.32812 15.2969 1.23438 12.5312 1.10938 9.75C1.01562 6.96875 0.875 4.25 0.6875 1.59375H9.54688C9.23438 5.96875 9.01562 10.4531 8.89062 15.0469C8.79688 19.6094 8.71875 24.0156 8.65625 28.2656H27.9219C27.8906 24.0156 27.8125 19.6094 27.6875 15.0469C27.5625 10.4531 27.375 5.96875 27.125 1.59375H35.9375ZM62.5194 61.7812C63.8944 61.7812 65.1287 61.6094 66.2225 61.2656C67.3475 60.9219 68.3787 60.5 69.3162 60C70.2537 59.4688 71.1131 58.8906 71.8944 58.2656C72.6756 57.6094 73.4256 56.9844 74.1444 56.3906V65.625C73.3319 65.7812 72.5037 65.9531 71.66 66.1406C70.8475 66.3281 69.9256 66.5 68.8944 66.6562C67.8944 66.8125 66.7694 66.9531 65.5194 67.0781C64.2694 67.2031 62.8319 67.2656 61.2069 67.2656C57.9256 67.2656 54.9725 66.5156 52.3475 65.0156C49.7537 63.4844 47.535 61.2969 45.6912 58.4531C43.8787 55.5781 42.4881 52.0938 41.5194 48C40.5506 43.875 40.0662 39.2188 40.0662 34.0312C40.0662 29.0312 40.4725 24.4688 41.285 20.3438C42.0975 16.1875 43.285 12.6406 44.8475 9.70312C46.4412 6.76562 48.3944 4.48438 50.7069 2.85938C53.0506 1.23437 55.7537 0.421875 58.8162 0.421875C61.9725 0.421875 64.6756 1.15625 66.9256 2.625C69.2069 4.0625 71.0662 6.17188 72.5037 8.95312C73.9725 11.7031 75.035 15.0938 75.6912 19.125C76.3787 23.1562 76.7225 27.7656 76.7225 32.9531V34.6875H48.41C48.5975 39.6562 48.9881 43.8594 49.5819 47.2969C50.2069 50.7344 51.0819 53.5312 52.2069 55.6875C53.3319 57.8438 54.7381 59.4062 56.4256 60.375C58.1444 61.3125 60.1756 61.7812 62.5194 61.7812ZM68.66 29.25C68.5975 27.4375 68.5037 25.5938 68.3787 23.7188C68.2537 21.8438 68.0506 20.0312 67.7694 18.2812C67.5194 16.5312 67.16 14.8906 66.6912 13.3594C66.2537 11.8281 65.6756 10.5 64.9569 9.375C64.2381 8.25 63.3631 7.35938 62.3319 6.70312C61.3006 6.04688 60.0819 5.71875 58.6756 5.71875C56.8006 5.71875 55.2381 6.40625 53.9881 7.78125C52.7694 9.15625 51.7694 10.9531 50.9881 13.1719C50.2381 15.3906 49.6756 17.9062 49.3006 20.7188C48.9256 23.5312 48.66 26.375 48.5037 29.25H68.66ZM95.6637 1.59375C100.945 1.59375 105.023 3.14062 107.898 6.23438C110.804 9.32812 112.257 14.0156 112.257 20.2969C112.257 24.3594 111.554 27.7188 110.148 30.375C108.742 33 106.664 35.0156 103.914 36.4219C104.601 39.1094 105.461 42.0312 106.492 45.1875C107.398 47.9062 108.523 51.0469 109.867 54.6094C111.242 58.1719 112.914 61.9688 114.882 66H104.992C103.586 61.3438 102.414 57.2969 101.476 53.8594C100.57 50.3906 99.8512 47.4844 99.32 45.1406C98.695 42.4219 98.2106 40.0938 97.8669 38.1562H88.3512C88.3512 40.3438 88.3669 42.6094 88.3981 44.9531C88.4606 47.2656 88.5231 49.6094 88.5856 51.9844C88.6481 54.3281 88.7262 56.6875 88.82 59.0625C88.9137 61.4375 89.0231 63.75 89.1481 66H80.3825C80.57 63.3438 80.7106 60.625 80.8044 57.8438C80.9294 55.0312 81.0231 52.25 81.0856 49.5C81.1481 46.7188 81.195 44 81.2262 41.3438C81.2575 38.6875 81.2731 36.1562 81.2731 33.75C81.2731 31.3438 81.2575 28.8125 81.2262 26.1562C81.195 23.5 81.1481 20.7969 81.0856 18.0469C81.0231 15.2969 80.9294 12.5312 80.8044 9.75C80.7106 6.96875 80.57 4.25 80.3825 1.59375H95.6637ZM88.9137 6.84375C88.695 11.3125 88.5387 15.7969 88.445 20.2969C88.3825 24.7656 88.3512 28.9844 88.3512 32.9531H95.195C96.6012 32.9531 97.8512 32.7344 98.945 32.2969C100.039 31.8594 100.961 31.1406 101.711 30.1406C102.492 29.1406 103.086 27.8438 103.492 26.25C103.898 24.625 104.101 22.6406 104.101 20.2969C104.101 15.5469 103.351 12.125 101.851 10.0312C100.382 7.90625 98.1637 6.84375 95.195 6.84375H88.9137ZM125.339 1.59375C125.152 4.25 124.996 6.96875 124.871 9.75C124.777 12.5312 124.699 15.2969 124.636 18.0469C124.574 20.7969 124.527 23.5 124.496 26.1562C124.464 28.8125 124.449 31.3438 124.449 33.75C124.449 36.1562 124.464 38.6875 124.496 41.3438C124.527 44 124.574 46.7188 124.636 49.5C124.699 52.25 124.777 55.0312 124.871 57.8438C124.964 60.625 125.089 63.3438 125.246 66H116.48C116.668 63.3438 116.808 60.625 116.902 57.8438C117.027 55.0312 117.121 52.25 117.183 49.5C117.246 46.7188 117.293 44 117.324 41.3438C117.355 38.6875 117.371 36.1562 117.371 33.75C117.371 31.3438 117.355 28.8125 117.324 26.1562C117.293 23.5 117.246 20.7969 117.183 18.0469C117.121 15.2969 117.027 12.5312 116.902 9.75C116.808 6.96875 116.668 4.25 116.48 1.59375H125.339ZM128.39 66V65.5312C132.171 56.0625 135.796 46.375 139.265 36.4688C142.765 26.5625 145.968 16.7656 148.874 7.07812H129.562V1.59375H159.562V2.0625C155.781 11.5312 152.109 21.2188 148.546 31.125C144.984 41.0312 141.749 50.8281 138.843 60.5156H159.843V66H128.39ZM200.3 33.8438C200.3 39.625 199.784 44.625 198.753 48.8438C197.722 53.0312 196.284 56.5 194.441 59.25C192.628 61.9688 190.488 63.9844 188.019 65.2969C185.55 66.6094 182.894 67.2656 180.05 67.2656C177.175 67.2656 174.503 66.6094 172.034 65.2969C169.566 63.9844 167.409 61.9688 165.566 59.25C163.753 56.5 162.316 53.0312 161.253 48.8438C160.222 44.625 159.706 39.625 159.706 33.8438C159.706 28.0938 160.222 23.125 161.253 18.9375C162.316 14.7188 163.753 11.2344 165.566 8.48438C167.409 5.73437 169.566 3.70312 172.034 2.39062C174.503 1.07812 177.175 0.421875 180.05 0.421875C182.894 0.421875 185.55 1.07812 188.019 2.39062C190.488 3.70312 192.628 5.73437 194.441 8.48438C196.284 11.2344 197.722 14.7188 198.753 18.9375C199.784 23.125 200.3 28.0938 200.3 33.8438ZM192.238 33.8438C192.238 29.0312 191.925 24.875 191.3 21.375C190.675 17.875 189.816 15 188.722 12.75C187.628 10.4687 186.331 8.79688 184.831 7.73438C183.363 6.64063 181.769 6.09375 180.05 6.09375C178.3 6.09375 176.675 6.64063 175.175 7.73438C173.706 8.79688 172.409 10.4687 171.284 12.75C170.191 15 169.331 17.875 168.706 21.375C168.081 24.875 167.769 29.0312 167.769 33.8438C167.769 38.6875 168.081 42.8594 168.706 46.3594C169.331 49.8594 170.191 52.7344 171.284 54.9844C172.409 57.2344 173.706 58.9062 175.175 60C176.675 61.0625 178.3 61.5938 180.05 61.5938C181.769 61.5938 183.363 61.0625 184.831 60C186.331 58.9062 187.628 57.2344 188.722 54.9844C189.816 52.7344 190.675 49.8594 191.3 46.3594C191.925 42.8594 192.238 38.6875 192.238 33.8438ZM231.757 35.1562C231.694 30.2812 231.585 26.0312 231.429 22.4062C231.304 18.75 231.007 15.7344 230.538 13.3594C230.101 10.9531 229.444 9.15625 228.569 7.96875C227.694 6.78125 226.491 6.1875 224.96 6.1875C224.148 6.1875 223.163 6.45313 222.007 6.98438C220.882 7.51562 219.726 8.23438 218.538 9.14062C217.351 10.0156 216.21 11.0156 215.116 12.1406C214.023 13.2656 213.116 14.4062 212.398 15.5625C212.21 21.75 212.116 28.0156 212.116 34.3594C212.116 37.2656 212.132 40.0312 212.163 42.6562C212.194 45.2812 212.241 47.8594 212.304 50.3906C212.366 52.9219 212.46 55.4688 212.585 58.0312C212.71 60.5625 212.851 63.2188 213.007 66H204.335C204.491 63.2188 204.616 60.5625 204.71 58.0312C204.835 55.4688 204.929 52.9219 204.991 50.3906C205.085 47.8594 205.148 45.2812 205.179 42.6562C205.21 40.0312 205.226 37.2656 205.226 34.3594C205.226 31.4531 205.21 28.6406 205.179 25.9219C205.148 23.1719 205.085 20.4688 204.991 17.8125C204.929 15.125 204.835 12.4531 204.71 9.79688C204.616 7.10938 204.491 4.375 204.335 1.59375H213.054L212.632 8.85938C213.569 7.73438 214.616 6.67187 215.773 5.67188C216.929 4.64062 218.132 3.73438 219.382 2.95312C220.632 2.17187 221.913 1.5625 223.226 1.125C224.538 0.65625 225.835 0.421875 227.116 0.421875C230.835 0.421875 233.71 1.90625 235.741 4.875C237.804 7.8125 238.835 12.2031 238.835 18.0469C238.835 19.4844 238.819 21.0312 238.788 22.6875C238.788 24.3125 238.773 25.9219 238.741 27.5156C238.71 29.0781 238.679 30.5312 238.648 31.875C238.648 33.2188 238.648 34.3125 238.648 35.1562C238.648 38.0625 238.663 40.7812 238.694 43.3125C238.726 45.8438 238.773 48.3281 238.835 50.7656C238.898 53.2031 238.976 55.6562 239.069 58.125C239.194 60.5938 239.335 63.2188 239.491 66H230.866C231.023 63.2188 231.163 60.5938 231.288 58.125C231.413 55.6562 231.523 53.2031 231.616 50.7656C231.71 48.3281 231.757 45.8438 231.757 43.3125C231.788 40.7812 231.788 38.0625 231.757 35.1562ZM285.108 66C284.671 63 284.217 60.0312 283.749 57.0938C283.28 54.1562 282.811 51.2188 282.342 48.2812H267.108C266.608 51.2188 266.124 54.1562 265.655 57.0938C265.217 60.0312 264.78 63 264.342 66H255.436C256.436 62.2188 257.421 58.3281 258.389 54.3281C259.358 50.2969 260.28 46.2969 261.155 42.3281C262.03 38.3281 262.858 34.4062 263.639 30.5625C264.452 26.6875 265.186 23 265.842 19.5C266.53 15.9688 267.155 12.6875 267.717 9.65625C268.28 6.625 268.764 3.9375 269.171 1.59375H280.28C280.686 3.9375 281.171 6.625 281.733 9.65625C282.296 12.6875 282.905 15.9688 283.561 19.5C284.249 23 284.983 26.6875 285.764 30.5625C286.577 34.4062 287.421 38.3281 288.296 42.3281C289.171 46.2969 290.092 50.2969 291.061 54.3281C292.03 58.3281 293.014 62.2188 294.014 66H285.108ZM274.374 11.0625C273.092 16.375 271.936 21.6562 270.905 26.9062C269.874 32.1562 268.905 37.4531 267.999 42.7969H281.405C280.499 37.4531 279.514 32.1562 278.452 26.9062C277.421 21.6562 276.28 16.375 275.03 11.0625H274.374ZM304.331 1.59375C304.143 4.25 303.987 6.96875 303.862 9.75C303.768 12.5312 303.69 15.2969 303.628 18.0469C303.565 20.7969 303.518 23.5 303.487 26.1562C303.456 28.8125 303.44 31.3438 303.44 33.75C303.44 36.1562 303.456 38.6875 303.487 41.3438C303.518 44 303.565 46.7188 303.628 49.5C303.69 52.25 303.768 55.0312 303.862 57.8438C303.956 60.625 304.081 63.3438 304.237 66H295.471C295.659 63.3438 295.799 60.625 295.893 57.8438C296.018 55.0312 296.112 52.25 296.174 49.5C296.237 46.7188 296.284 44 296.315 41.3438C296.346 38.6875 296.362 36.1562 296.362 33.75C296.362 31.3438 296.346 28.8125 296.315 26.1562C296.284 23.5 296.237 20.7969 296.174 18.0469C296.112 15.2969 296.018 12.5312 295.893 9.75C295.799 6.96875 295.659 4.25 295.471 1.59375H304.331Z" fill="#F9F5F0"/>
</svg>
