<svg width="101" height="29" viewBox="0 0 101 29" fill="none" xmlns="http://www.w3.org/2000/svg">
<path d="M15.6406 1.16406C15.5755 2.27083 15.5169 3.40365 15.4648 4.5625C15.4258 5.72135 15.3932 6.8737 15.3672 8.01953C15.3411 9.16536 15.3216 10.2917 15.3086 11.3984C15.2956 12.5052 15.2891 13.5599 15.2891 14.5625C15.2891 15.5651 15.2956 16.6198 15.3086 17.7266C15.3216 18.8333 15.3346 19.9661 15.3477 21.125C15.3737 22.2708 15.4062 23.4297 15.4453 24.6016C15.4844 25.7604 15.5365 26.8932 15.6016 28H11.9688C12.0339 26.8932 12.0859 25.7604 12.125 24.6016C12.1771 23.4297 12.2161 22.2708 12.2422 21.125C12.2682 19.9661 12.2878 18.8333 12.3008 17.7266C12.3138 16.6198 12.3203 15.5651 12.3203 14.5625H4.27344C4.27344 15.5651 4.27995 16.6198 4.29297 17.7266C4.30599 18.8333 4.32552 19.9661 4.35156 21.125C4.3776 22.2708 4.41016 23.4297 4.44922 24.6016C4.48828 25.7604 4.54036 26.8932 4.60547 28H0.953125C1.03125 26.8932 1.08984 25.7604 1.12891 24.6016C1.18099 23.4297 1.22005 22.2708 1.24609 21.125C1.27214 19.9661 1.29167 18.8333 1.30469 17.7266C1.31771 16.6198 1.32422 15.5651 1.32422 14.5625C1.32422 13.5599 1.31771 12.5052 1.30469 11.3984C1.29167 10.2917 1.27214 9.16536 1.24609 8.01953C1.22005 6.8737 1.18099 5.72135 1.12891 4.5625C1.08984 3.40365 1.03125 2.27083 0.953125 1.16406H4.64453C4.51432 2.98698 4.42318 4.85547 4.37109 6.76953C4.33203 8.67057 4.29948 10.5065 4.27344 12.2773H12.3008C12.2878 10.5065 12.2552 8.67057 12.2031 6.76953C12.151 4.85547 12.0729 2.98698 11.9688 1.16406H15.6406ZM26.7164 26.2422C27.2893 26.2422 27.8036 26.1706 28.2594 26.0273C28.7281 25.8841 29.1578 25.7083 29.5484 25.5C29.9391 25.2786 30.2971 25.0378 30.6227 24.7773C30.9482 24.5039 31.2607 24.2435 31.5602 23.9961V27.8438C31.2216 27.9089 30.8766 27.9805 30.525 28.0586C30.1865 28.1367 29.8023 28.2083 29.3727 28.2734C28.956 28.3385 28.4872 28.3971 27.9664 28.4492C27.4456 28.5013 26.8466 28.5273 26.1695 28.5273C24.8023 28.5273 23.5719 28.2148 22.4781 27.5898C21.3974 26.9518 20.4729 26.0404 19.7047 24.8555C18.9495 23.6576 18.3701 22.2057 17.9664 20.5C17.5628 18.7812 17.3609 16.8411 17.3609 14.6797C17.3609 12.5964 17.5302 10.6953 17.8687 8.97656C18.2073 7.24479 18.7021 5.76693 19.3531 4.54297C20.0172 3.31901 20.831 2.36849 21.7945 1.69141C22.7711 1.01432 23.8974 0.675781 25.1734 0.675781C26.4885 0.675781 27.6148 0.981771 28.5523 1.59375C29.5029 2.19271 30.2776 3.07161 30.8766 4.23047C31.4885 5.3763 31.9312 6.78906 32.2047 8.46875C32.4911 10.1484 32.6344 12.069 32.6344 14.2305V14.9531H20.8375C20.9156 17.0234 21.0784 18.7747 21.3258 20.207C21.5862 21.6393 21.9508 22.8047 22.4195 23.7031C22.8883 24.6016 23.4742 25.2526 24.1773 25.6562C24.8935 26.0469 25.7398 26.2422 26.7164 26.2422ZM29.275 12.6875C29.249 11.9323 29.2099 11.1641 29.1578 10.3828C29.1057 9.60156 29.0211 8.84635 28.9039 8.11719C28.7997 7.38802 28.65 6.70443 28.4547 6.06641C28.2724 5.42839 28.0315 4.875 27.732 4.40625C27.4326 3.9375 27.068 3.56641 26.6383 3.29297C26.2086 3.01953 25.7008 2.88281 25.1148 2.88281C24.3336 2.88281 23.6826 3.16927 23.1617 3.74219C22.6539 4.3151 22.2372 5.0638 21.9117 5.98828C21.5992 6.91276 21.3648 7.96094 21.2086 9.13281C21.0523 10.3047 20.9417 11.4896 20.8766 12.6875H29.275ZM40.5266 1.16406C42.7271 1.16406 44.4263 1.80859 45.6242 3.09766C46.8352 4.38672 47.4406 6.33984 47.4406 8.95703C47.4406 10.6497 47.1477 12.0495 46.5617 13.1562C45.9758 14.25 45.1099 15.0898 43.9641 15.6758C44.2505 16.7956 44.6086 18.013 45.0383 19.3281C45.4159 20.4609 45.8846 21.7695 46.4445 23.2539C47.0174 24.7383 47.7141 26.3203 48.5344 28H44.4133C43.8273 26.0599 43.3391 24.3737 42.9484 22.9414C42.5708 21.4961 42.2714 20.2852 42.05 19.3086C41.7896 18.1758 41.5878 17.2057 41.4445 16.3984H37.4797C37.4797 17.3099 37.4862 18.2539 37.4992 19.2305C37.5253 20.194 37.5513 21.1706 37.5773 22.1602C37.6034 23.1367 37.6359 24.1198 37.675 25.1094C37.7141 26.099 37.7596 27.0625 37.8117 28H34.1594C34.2375 26.8932 34.2961 25.7604 34.3352 24.6016C34.3872 23.4297 34.4263 22.2708 34.4523 21.125C34.4784 19.9661 34.4979 18.8333 34.5109 17.7266C34.524 16.6198 34.5305 15.5651 34.5305 14.5625C34.5305 13.5599 34.524 12.5052 34.5109 11.3984C34.4979 10.2917 34.4784 9.16536 34.4523 8.01953C34.4263 6.8737 34.3872 5.72135 34.3352 4.5625C34.2961 3.40365 34.2375 2.27083 34.1594 1.16406H40.5266ZM37.7141 3.35156C37.6229 5.21354 37.5578 7.08203 37.5187 8.95703C37.4927 10.819 37.4797 12.5768 37.4797 14.2305H40.3312C40.9172 14.2305 41.438 14.1393 41.8937 13.957C42.3495 13.7747 42.7336 13.4753 43.0461 13.0586C43.3716 12.6419 43.619 12.1016 43.7883 11.4375C43.9576 10.7604 44.0422 9.93359 44.0422 8.95703C44.0422 6.97786 43.7297 5.55208 43.1047 4.67969C42.4927 3.79427 41.5682 3.35156 40.3312 3.35156H37.7141ZM52.8914 1.16406C52.8133 2.27083 52.7482 3.40365 52.6961 4.5625C52.657 5.72135 52.6245 6.8737 52.5984 8.01953C52.5724 9.16536 52.5529 10.2917 52.5398 11.3984C52.5268 12.5052 52.5203 13.5599 52.5203 14.5625C52.5203 15.5651 52.5268 16.6198 52.5398 17.7266C52.5529 18.8333 52.5724 19.9661 52.5984 21.125C52.6245 22.2708 52.657 23.4297 52.6961 24.6016C52.7352 25.7604 52.7872 26.8932 52.8523 28H49.2C49.2781 26.8932 49.3367 25.7604 49.3758 24.6016C49.4279 23.4297 49.4669 22.2708 49.493 21.125C49.519 19.9661 49.5385 18.8333 49.5516 17.7266C49.5646 16.6198 49.5711 15.5651 49.5711 14.5625C49.5711 13.5599 49.5646 12.5052 49.5516 11.3984C49.5385 10.2917 49.519 9.16536 49.493 8.01953C49.4669 6.8737 49.4279 5.72135 49.3758 4.5625C49.3367 3.40365 49.2781 2.27083 49.2 1.16406H52.8914ZM54.1625 28V27.8047C55.738 23.8594 57.2484 19.8229 58.6937 15.6953C60.1521 11.5677 61.4867 7.48568 62.6977 3.44922H54.6508V1.16406H67.1508V1.35938C65.5753 5.30469 64.0453 9.34115 62.5609 13.4688C61.0766 17.5964 59.7289 21.6784 58.518 25.7148H67.268V28H54.1625ZM84.125 14.6016C84.125 17.0104 83.9102 19.0938 83.4805 20.8516C83.0508 22.5964 82.4518 24.0417 81.6836 25.1875C80.9284 26.3203 80.0365 27.1602 79.0078 27.707C77.9792 28.2539 76.8724 28.5273 75.6875 28.5273C74.4896 28.5273 73.3763 28.2539 72.3477 27.707C71.319 27.1602 70.4206 26.3203 69.6523 25.1875C68.8971 24.0417 68.2982 22.5964 67.8555 20.8516C67.4258 19.0938 67.2109 17.0104 67.2109 14.6016C67.2109 12.2057 67.4258 10.1354 67.8555 8.39062C68.2982 6.63281 68.8971 5.18099 69.6523 4.03516C70.4206 2.88932 71.319 2.04297 72.3477 1.49609C73.3763 0.949219 74.4896 0.675781 75.6875 0.675781C76.8724 0.675781 77.9792 0.949219 79.0078 1.49609C80.0365 2.04297 80.9284 2.88932 81.6836 4.03516C82.4518 5.18099 83.0508 6.63281 83.4805 8.39062C83.9102 10.1354 84.125 12.2057 84.125 14.6016ZM80.7656 14.6016C80.7656 12.5964 80.6354 10.8646 80.375 9.40625C80.1146 7.94792 79.7565 6.75 79.3008 5.8125C78.8451 4.86198 78.3047 4.16536 77.6797 3.72266C77.0677 3.26693 76.4036 3.03906 75.6875 3.03906C74.9583 3.03906 74.2812 3.26693 73.6562 3.72266C73.0443 4.16536 72.5039 4.86198 72.0352 5.8125C71.5794 6.75 71.2214 7.94792 70.9609 9.40625C70.7005 10.8646 70.5703 12.5964 70.5703 14.6016C70.5703 16.6198 70.7005 18.3581 70.9609 19.8164C71.2214 21.2747 71.5794 22.4727 72.0352 23.4102C72.5039 24.3477 73.0443 25.0443 73.6562 25.5C74.2812 25.9427 74.9583 26.1641 75.6875 26.1641C76.4036 26.1641 77.0677 25.9427 77.6797 25.5C78.3047 25.0443 78.8451 24.3477 79.3008 23.4102C79.7565 22.4727 80.1146 21.2747 80.375 19.8164C80.6354 18.3581 80.7656 16.6198 80.7656 14.6016ZM97.232 15.1484C97.206 13.1172 97.1604 11.3464 97.0953 9.83594C97.0432 8.3125 96.9195 7.05599 96.7242 6.06641C96.5419 5.0638 96.2685 4.3151 95.9039 3.82031C95.5393 3.32552 95.038 3.07812 94.4 3.07812C94.0615 3.07812 93.6513 3.1888 93.1695 3.41016C92.7008 3.63151 92.219 3.93099 91.7242 4.30859C91.2294 4.67318 90.7542 5.08984 90.2984 5.55859C89.8427 6.02734 89.4651 6.5026 89.1656 6.98438C89.0875 9.5625 89.0484 12.1732 89.0484 14.8164C89.0484 16.0273 89.0549 17.1797 89.068 18.2734C89.081 19.3672 89.1005 20.4414 89.1266 21.4961C89.1526 22.5508 89.1917 23.612 89.2438 24.6797C89.2958 25.7344 89.3544 26.8411 89.4195 28H85.8063C85.8714 26.8411 85.9234 25.7344 85.9625 24.6797C86.0146 23.612 86.0536 22.5508 86.0797 21.4961C86.1188 20.4414 86.1448 19.3672 86.1578 18.2734C86.1708 17.1797 86.1773 16.0273 86.1773 14.8164C86.1773 13.6055 86.1708 12.4336 86.1578 11.3008C86.1448 10.1549 86.1188 9.02865 86.0797 7.92188C86.0536 6.80208 86.0146 5.6888 85.9625 4.58203C85.9234 3.46224 85.8714 2.32292 85.8063 1.16406H89.4391L89.2633 4.19141C89.6539 3.72266 90.0901 3.27995 90.5719 2.86328C91.0536 2.43359 91.5549 2.05599 92.0758 1.73047C92.5966 1.40495 93.1305 1.15104 93.6773 0.96875C94.2242 0.773438 94.7646 0.675781 95.2984 0.675781C96.8479 0.675781 98.0458 1.29427 98.8922 2.53125C99.7516 3.75521 100.181 5.58464 100.181 8.01953C100.181 8.61849 100.175 9.26302 100.162 9.95312C100.162 10.6302 100.155 11.3008 100.142 11.9648C100.129 12.6159 100.116 13.2214 100.103 13.7812C100.103 14.3411 100.103 14.7969 100.103 15.1484C100.103 16.3594 100.11 17.4922 100.123 18.5469C100.136 19.6016 100.155 20.6367 100.181 21.6523C100.207 22.668 100.24 23.6901 100.279 24.7188C100.331 25.7474 100.39 26.8411 100.455 28H96.8609C96.926 26.8411 96.9846 25.7474 97.0367 24.7188C97.0888 23.6901 97.1344 22.668 97.1734 21.6523C97.2125 20.6367 97.232 19.6016 97.232 18.5469C97.2451 17.4922 97.2451 16.3594 97.232 15.1484Z" fill="black"/>
</svg>
